<svg width="43" height="44" viewBox="0 0 43 44" fill="none" xmlns="http://www.w3.org/2000/svg">
<path d="M32.3162 19.875H42.6437C42.3086 16.5431 41.187 13.3385 39.3712 10.525C37.5322 11.4043 35.9315 12.7126 34.7037 14.3398C33.4759 15.9669 32.6571 17.8653 32.3162 19.875ZM10.6837 19.875C10.3428 17.8653 9.52398 15.9669 8.29622 14.3398C7.06845 12.7126 5.46768 11.4043 3.6287 10.525C1.81293 13.3385 0.691321 16.5431 0.356201 19.875H10.6837ZM28.0237 19.875C28.3562 17.2205 29.311 14.6821 30.8102 12.4665C32.3095 10.2509 34.3108 8.42071 36.6512 7.12495C33.1785 3.57265 28.5677 1.35379 23.625 0.856201V19.875H28.0237ZM14.9762 19.875H19.375V0.856201C14.4309 1.34918 9.81865 3.56876 6.3487 7.12495C8.68913 8.42071 10.6904 10.2509 12.1897 12.4665C13.6889 14.6821 14.6437 17.2205 14.9762 19.875ZM28.0237 24.125H23.625V43.1437C28.569 42.6507 33.1813 40.4312 36.6512 36.875C34.3108 35.5792 32.3095 33.749 30.8102 31.5334C29.311 29.3178 28.3562 26.7794 28.0237 24.125ZM3.6287 33.475C5.46329 32.5896 7.06032 31.2795 8.28728 29.6534C9.51424 28.0273 10.3358 26.1321 10.6837 24.125H0.356201C0.696201 27.5462 1.86495 30.7337 3.6287 33.475ZM32.3162 24.125C32.6571 26.1346 33.4759 28.033 34.7037 29.6601C35.9315 31.2873 37.5322 32.5956 39.3712 33.475C41.187 30.6614 42.3086 27.4568 42.6437 24.125H32.3162ZM14.9762 24.125C14.6437 26.7794 13.6889 29.3178 12.1897 31.5334C10.6904 33.749 8.68913 35.5792 6.3487 36.875C9.82144 40.4273 14.4322 42.6461 19.375 43.1437V24.125H14.9762Z" fill="white"/>
</svg>
