<svg width="18" height="17" viewBox="0 0 18 17" fill="none" xmlns="http://www.w3.org/2000/svg">
<path d="M6.6256 5.33685L6.50854 5.57109L6.24934 5.60827L0.94483 6.36916C0.944653 6.36919 0.944473 6.36921 0.944296 6.36924C0.842113 6.3845 0.790394 6.4715 0.802034 6.54598L0.802065 6.54597L0.802877 6.55157C0.807482 6.58338 0.822863 6.61488 0.849672 6.64095C0.849785 6.64106 0.849895 6.64117 0.850008 6.64128L4.68809 10.3346L4.87951 10.5188L4.834 10.7805L3.92702 15.997L3.92695 15.9974C3.91314 16.0764 3.96615 16.1629 4.06373 16.1795L4.06444 16.1797C4.1029 16.1863 4.14162 16.1795 4.17155 16.1638L4.17379 16.1626L8.91978 13.6998L9.15008 13.5803L9.38038 13.6998L14.1264 16.1626L14.1271 16.163C14.1553 16.1777 14.1876 16.1846 14.2202 16.1823C14.2528 16.18 14.2835 16.1687 14.3089 16.1505C14.3342 16.1324 14.353 16.1082 14.3641 16.0814C14.3751 16.0546 14.3782 16.0257 14.3733 15.9977L14.3731 15.997L13.4662 10.7805L13.4206 10.5188L13.6121 10.3346L17.4511 6.64038L17.4511 6.64035C17.4827 6.60998 17.4995 6.5699 17.5 6.52932C17.5006 6.48904 17.4851 6.44891 17.4549 6.41793C17.4285 6.39163 17.3947 6.37472 17.3581 6.36956L17.3569 6.36939L12.0508 5.60827L11.7916 5.57109L11.6746 5.33685L9.30383 0.593114C9.30368 0.592833 9.30354 0.592553 9.3034 0.592273C9.26232 0.512353 9.15847 0.475586 9.07233 0.517558L9.07176 0.517838C9.03851 0.533987 9.01289 0.559918 8.99777 0.590246L8.99755 0.590682L6.6256 5.33685ZM14.8654 15.9114L14.8654 15.9114L14.8654 15.9114Z" stroke="#F0694F"/>
</svg>
