<svg width="146" height="13" viewBox="0 0 146 13" fill="none" xmlns="http://www.w3.org/2000/svg">
<path d="M0.734597 12V1.09091H2.05562V10.8281H7.12664V12H0.734597ZM9.00164 12V3.81818H10.2587V12H9.00164ZM9.64085 2.45455C9.39582 2.45455 9.18453 2.37109 9.00697 2.20419C8.83296 2.03729 8.74596 1.83665 8.74596 1.60227C8.74596 1.3679 8.83296 1.16726 9.00697 1.00035C9.18453 0.833452 9.39582 0.75 9.64085 0.75C9.88588 0.75 10.0954 0.833452 10.2694 1.00035C10.447 1.16726 10.5357 1.3679 10.5357 1.60227C10.5357 1.83665 10.447 2.03729 10.2694 2.20419C10.0954 2.37109 9.88588 2.45455 9.64085 2.45455ZM19.2516 3.81818L16.226 12H14.9476L11.922 3.81818H13.2856L15.5442 10.3381H15.6294L17.8879 3.81818H19.2516ZM24.0483 12.1705C23.2599 12.1705 22.5799 11.9964 22.0081 11.6484C21.4399 11.2969 21.0014 10.8068 20.6924 10.1783C20.387 9.54616 20.2343 8.81108 20.2343 7.97301C20.2343 7.13494 20.387 6.39631 20.6924 5.7571C21.0014 5.11435 21.4311 4.61364 21.9815 4.25497C22.5355 3.89276 23.1818 3.71165 23.9204 3.71165C24.3465 3.71165 24.7674 3.78267 25.1828 3.92472C25.5983 4.06676 25.9765 4.29759 26.3174 4.61719C26.6583 4.93324 26.93 5.35227 27.1324 5.87429C27.3348 6.39631 27.436 7.03906 27.436 7.80256V8.33523H21.1292V7.24858H26.1576C26.1576 6.78693 26.0653 6.375 25.8806 6.01278C25.6995 5.65057 25.4403 5.3647 25.1029 5.15518C24.7691 4.94567 24.375 4.84091 23.9204 4.84091C23.4197 4.84091 22.9865 4.9652 22.6207 5.21378C22.2585 5.45881 21.9797 5.77841 21.7844 6.17258C21.5891 6.56676 21.4914 6.98935 21.4914 7.44034V8.16477C21.4914 8.78267 21.598 9.30646 21.811 9.73615C22.0277 10.1623 22.3277 10.4872 22.7112 10.7109C23.0948 10.9311 23.5404 11.0412 24.0483 11.0412C24.3785 11.0412 24.6768 10.995 24.9431 10.9027C25.213 10.8068 25.4456 10.6648 25.6409 10.4766C25.8362 10.2848 25.9872 10.0469 26.0937 9.76278L27.3082 10.1037C27.1804 10.5156 26.9655 10.8778 26.6637 11.1903C26.3618 11.4993 25.9889 11.7408 25.5451 11.9148C25.1012 12.0852 24.6022 12.1705 24.0483 12.1705ZM33.5671 12V3.81818H34.8242V12H33.5671ZM34.2063 2.45455C33.9612 2.45455 33.75 2.37109 33.5724 2.20419C33.3984 2.03729 33.3114 1.83665 33.3114 1.60227C33.3114 1.3679 33.3984 1.16726 33.5724 1.00035C33.75 0.833452 33.9612 0.75 34.2063 0.75C34.4513 0.75 34.6608 0.833452 34.8348 1.00035C35.0124 1.16726 35.1012 1.3679 35.1012 1.60227C35.1012 1.83665 35.0124 2.03729 34.8348 2.20419C34.6608 2.37109 34.4513 2.45455 34.2063 2.45455ZM40.6849 3.81818V4.88352H36.4448V3.81818H40.6849ZM37.6806 1.85795H38.9377V9.65625C38.9377 10.0114 38.9892 10.2777 39.0922 10.4553C39.1987 10.6293 39.3337 10.7464 39.497 10.8068C39.6639 10.8636 39.8397 10.892 40.0244 10.892C40.1629 10.892 40.2765 10.8849 40.3653 10.8707C40.4541 10.853 40.5251 10.8388 40.5783 10.8281L40.834 11.9574C40.7488 11.9893 40.6298 12.0213 40.4771 12.0533C40.3244 12.0888 40.1309 12.1065 39.8965 12.1065C39.5414 12.1065 39.1934 12.0302 38.8525 11.8775C38.5151 11.7248 38.2346 11.4922 38.0109 11.1797C37.7907 10.8672 37.6806 10.473 37.6806 9.99716V1.85795ZM48.0517 1.09091V12H46.7946V1.09091H48.0517ZM50.3542 12V3.81818H51.6113V12H50.3542ZM50.9934 2.45455C50.7484 2.45455 50.5371 2.37109 50.3595 2.20419C50.1855 2.03729 50.0985 1.83665 50.0985 1.60227C50.0985 1.3679 50.1855 1.16726 50.3595 1.00035C50.5371 0.833452 50.7484 0.75 50.9934 0.75C51.2384 0.75 51.4479 0.833452 51.6219 1.00035C51.7995 1.16726 51.8883 1.3679 51.8883 1.60227C51.8883 1.83665 51.7995 2.03729 51.6219 2.20419C51.4479 2.37109 51.2384 2.45455 50.9934 2.45455ZM55.0856 9.01705L55.0643 7.46165H55.32L58.8995 3.81818H60.4549L56.641 7.67472H56.5345L55.0856 9.01705ZM53.9138 12V1.09091H55.1709V12H53.9138ZM59.1126 12L55.9166 7.9517L56.8115 7.07812L60.7106 12H59.1126ZM65.1664 12.1705C64.3781 12.1705 63.698 11.9964 63.1263 11.6484C62.5581 11.2969 62.1195 10.8068 61.8106 10.1783C61.5052 9.54616 61.3525 8.81108 61.3525 7.97301C61.3525 7.13494 61.5052 6.39631 61.8106 5.7571C62.1195 5.11435 62.5492 4.61364 63.0997 4.25497C63.6536 3.89276 64.2999 3.71165 65.0386 3.71165C65.4647 3.71165 65.8855 3.78267 66.301 3.92472C66.7165 4.06676 67.0947 4.29759 67.4356 4.61719C67.7765 4.93324 68.0482 5.35227 68.2506 5.87429C68.453 6.39631 68.5542 7.03906 68.5542 7.80256V8.33523H62.2474V7.24858H67.2758C67.2758 6.78693 67.1835 6.375 66.9988 6.01278C66.8177 5.65057 66.5585 5.3647 66.2211 5.15518C65.8873 4.94567 65.4931 4.84091 65.0386 4.84091C64.5379 4.84091 64.1046 4.9652 63.7389 5.21378C63.3766 5.45881 63.0979 5.77841 62.9026 6.17258C62.7073 6.56676 62.6096 6.98935 62.6096 7.44034V8.16477C62.6096 8.78267 62.7161 9.30646 62.9292 9.73615C63.1458 10.1623 63.4459 10.4872 63.8294 10.7109C64.2129 10.9311 64.6586 11.0412 65.1664 11.0412C65.4967 11.0412 65.795 10.995 66.0613 10.9027C66.3312 10.8068 66.5638 10.6648 66.7591 10.4766C66.9544 10.2848 67.1053 10.0469 67.2119 9.76278L68.4264 10.1037C68.2985 10.5156 68.0837 10.8778 67.7818 11.1903C67.48 11.4993 67.1071 11.7408 66.6632 11.9148C66.2193 12.0852 65.7204 12.1705 65.1664 12.1705ZM78.2435 3.81818V4.88352H74.0034V3.81818H78.2435ZM75.2392 1.85795H76.4963V9.65625C76.4963 10.0114 76.5478 10.2777 76.6508 10.4553C76.7573 10.6293 76.8923 10.7464 77.0556 10.8068C77.2225 10.8636 77.3983 10.892 77.583 10.892C77.7215 10.892 77.8351 10.8849 77.9239 10.8707C78.0127 10.853 78.0837 10.8388 78.1369 10.8281L78.3926 11.9574C78.3074 11.9893 78.1884 12.0213 78.0357 12.0533C77.883 12.0888 77.6895 12.1065 77.4551 12.1065C77.1 12.1065 76.752 12.0302 76.4111 11.8775C76.0737 11.7248 75.7932 11.4922 75.5695 11.1797C75.3493 10.8672 75.2392 10.473 75.2392 9.99716V1.85795ZM81.5673 7.07812V12H80.3102V1.09091H81.5673V5.09659H81.6739C81.8656 4.67401 82.1533 4.33842 82.5368 4.08984C82.9239 3.83771 83.4388 3.71165 84.0815 3.71165C84.6391 3.71165 85.1274 3.82351 85.5464 4.04723C85.9654 4.2674 86.2904 4.60653 86.5212 5.06463C86.7555 5.51918 86.8727 6.09801 86.8727 6.80114V12H85.6156V6.88636C85.6156 6.23651 85.447 5.73402 85.1096 5.37891C84.7758 5.02024 84.3124 4.84091 83.7193 4.84091C83.3074 4.84091 82.9381 4.92791 82.6114 5.10192C82.2882 5.27592 82.0325 5.52983 81.8443 5.86364C81.6597 6.19744 81.5673 6.60227 81.5673 7.07812ZM92.6029 12.1705C91.8146 12.1705 91.1345 11.9964 90.5628 11.6484C89.9946 11.2969 89.5561 10.8068 89.2471 10.1783C88.9417 9.54616 88.789 8.81108 88.789 7.97301C88.789 7.13494 88.9417 6.39631 89.2471 5.7571C89.5561 5.11435 89.9858 4.61364 90.5362 4.25497C91.0902 3.89276 91.7365 3.71165 92.4751 3.71165C92.9012 3.71165 93.322 3.78267 93.7375 3.92472C94.153 4.06676 94.5312 4.29759 94.8721 4.61719C95.213 4.93324 95.4847 5.35227 95.6871 5.87429C95.8895 6.39631 95.9907 7.03906 95.9907 7.80256V8.33523H89.6839V7.24858H94.7123C94.7123 6.78693 94.62 6.375 94.4353 6.01278C94.2542 5.65057 93.995 5.3647 93.6576 5.15518C93.3238 4.94567 92.9296 4.84091 92.4751 4.84091C91.9744 4.84091 91.5411 4.9652 91.1754 5.21378C90.8132 5.45881 90.5344 5.77841 90.3391 6.17258C90.1438 6.56676 90.0461 6.98935 90.0461 7.44034V8.16477C90.0461 8.78267 90.1527 9.30646 90.3657 9.73615C90.5823 10.1623 90.8824 10.4872 91.2659 10.7109C91.6495 10.9311 92.0951 11.0412 92.6029 11.0412C92.9332 11.0412 93.2315 10.995 93.4978 10.9027C93.7677 10.8068 94.0003 10.6648 94.1956 10.4766C94.3909 10.2848 94.5419 10.0469 94.6484 9.76278L95.8629 10.1037C95.735 10.5156 95.5202 10.8778 95.2184 11.1903C94.9165 11.4993 94.5436 11.7408 94.0997 11.9148C93.6559 12.0852 93.1569 12.1705 92.6029 12.1705ZM102.292 12V1.09091H103.613V10.8281H108.684V12H102.292ZM113.883 12.1705C113.144 12.1705 112.496 11.9947 111.939 11.6431C111.385 11.2915 110.952 10.7997 110.639 10.1676C110.33 9.53551 110.176 8.79687 110.176 7.9517C110.176 7.09943 110.33 6.35547 110.639 5.71982C110.952 5.08416 111.385 4.59055 111.939 4.23899C112.496 3.88743 113.144 3.71165 113.883 3.71165C114.622 3.71165 115.268 3.88743 115.822 4.23899C116.38 4.59055 116.813 5.08416 117.122 5.71982C117.434 6.35547 117.591 7.09943 117.591 7.9517C117.591 8.79687 117.434 9.53551 117.122 10.1676C116.813 10.7997 116.38 11.2915 115.822 11.6431C115.268 11.9947 114.622 12.1705 113.883 12.1705ZM113.883 11.0412C114.444 11.0412 114.906 10.8974 115.268 10.6097C115.63 10.3221 115.898 9.94389 116.072 9.47514C116.246 9.00639 116.333 8.49858 116.333 7.9517C116.333 7.40483 116.246 6.89524 116.072 6.42294C115.898 5.95064 115.63 5.56889 115.268 5.2777C114.906 4.98651 114.444 4.84091 113.883 4.84091C113.322 4.84091 112.86 4.98651 112.498 5.2777C112.136 5.56889 111.868 5.95064 111.694 6.42294C111.52 6.89524 111.433 7.40483 111.433 7.9517C111.433 8.49858 111.52 9.00639 111.694 9.47514C111.868 9.94389 112.136 10.3221 112.498 10.6097C112.86 10.8974 113.322 11.0412 113.883 11.0412ZM122.833 12.1705C122.066 12.1705 121.406 11.9893 120.852 11.6271C120.298 11.2649 119.872 10.766 119.573 10.1303C119.275 9.49467 119.126 8.76847 119.126 7.9517C119.126 7.12074 119.279 6.38743 119.584 5.75178C119.893 5.11257 120.323 4.61364 120.873 4.25497C121.427 3.89276 122.073 3.71165 122.812 3.71165C123.387 3.71165 123.906 3.81818 124.367 4.03125C124.829 4.24432 125.207 4.54261 125.502 4.92614C125.797 5.30966 125.98 5.7571 126.051 6.26847H124.794C124.698 5.8956 124.485 5.56534 124.154 5.2777C123.828 4.98651 123.387 4.84091 122.833 4.84091C122.343 4.84091 121.914 4.96875 121.544 5.22443C121.178 5.47656 120.893 5.83345 120.687 6.2951C120.484 6.7532 120.383 7.29119 120.383 7.90909C120.383 8.54119 120.482 9.09162 120.681 9.56037C120.884 10.0291 121.168 10.3931 121.534 10.6523C121.903 10.9116 122.336 11.0412 122.833 11.0412C123.16 11.0412 123.457 10.9844 123.723 10.8707C123.989 10.7571 124.215 10.5938 124.399 10.3807C124.584 10.1676 124.715 9.91193 124.794 9.61364H126.051C125.98 10.0966 125.804 10.5316 125.523 10.9187C125.246 11.3022 124.879 11.6076 124.421 11.8349C123.966 12.0586 123.437 12.1705 122.833 12.1705ZM130.296 12.1918C129.778 12.1918 129.307 12.0941 128.884 11.8988C128.462 11.6999 128.126 11.4141 127.878 11.0412C127.629 10.6648 127.505 10.2102 127.505 9.67756C127.505 9.20881 127.597 8.82884 127.782 8.53764C127.966 8.2429 128.213 8.01207 128.522 7.84517C128.831 7.67827 129.172 7.55398 129.545 7.4723C129.921 7.38707 130.3 7.3196 130.68 7.26989C131.177 7.20597 131.58 7.15803 131.889 7.12607C132.201 7.09055 132.428 7.03196 132.571 6.95028C132.716 6.86861 132.789 6.72656 132.789 6.52415V6.48153C132.789 5.95597 132.645 5.54759 132.357 5.25639C132.073 4.9652 131.642 4.8196 131.063 4.8196C130.463 4.8196 129.992 4.95099 129.652 5.21378C129.311 5.47656 129.071 5.7571 128.932 6.0554L127.739 5.62926C127.952 5.1321 128.236 4.74503 128.591 4.46804C128.95 4.1875 129.341 3.99219 129.763 3.8821C130.189 3.76847 130.609 3.71165 131.02 3.71165C131.283 3.71165 131.585 3.74361 131.926 3.80753C132.27 3.8679 132.602 3.99396 132.922 4.18572C133.245 4.37749 133.513 4.6669 133.726 5.05398C133.939 5.44105 134.046 5.95952 134.046 6.60938V12H132.789V10.892H132.725C132.64 11.0696 132.498 11.2596 132.299 11.462C132.1 11.6644 131.835 11.8366 131.505 11.9787C131.175 12.1207 130.772 12.1918 130.296 12.1918ZM130.488 11.0625C130.985 11.0625 131.404 10.9648 131.745 10.7695C132.089 10.5742 132.349 10.3221 132.523 10.0131C132.7 9.70419 132.789 9.37926 132.789 9.03835V7.88778C132.736 7.9517 132.618 8.0103 132.437 8.06357C132.26 8.11328 132.054 8.15767 131.819 8.19673C131.589 8.23224 131.363 8.2642 131.143 8.29261C130.926 8.31747 130.751 8.33878 130.616 8.35653C130.289 8.39915 129.984 8.46839 129.699 8.56428C129.419 8.65661 129.192 8.79687 129.018 8.98509C128.847 9.16974 128.762 9.42187 128.762 9.74148C128.762 10.1783 128.924 10.5085 129.247 10.7322C129.573 10.9524 129.987 11.0625 130.488 11.0625ZM137.598 1.09091V12H136.341V1.09091H137.598ZM145.696 5.65057L144.566 5.97017C144.495 5.78196 144.39 5.59908 144.252 5.42152C144.117 5.24041 143.932 5.09126 143.698 4.97408C143.464 4.85689 143.164 4.7983 142.798 4.7983C142.297 4.7983 141.88 4.91371 141.546 5.14453C141.216 5.3718 141.051 5.66122 141.051 6.01278C141.051 6.32528 141.164 6.57209 141.392 6.7532C141.619 6.9343 141.974 7.08523 142.457 7.20597L143.671 7.50426C144.403 7.68182 144.948 7.95348 145.307 8.31925C145.665 8.68146 145.845 9.14844 145.845 9.72017C145.845 10.1889 145.71 10.608 145.44 10.9773C145.174 11.3466 144.801 11.6378 144.321 11.8509C143.842 12.0639 143.284 12.1705 142.649 12.1705C141.814 12.1705 141.123 11.9893 140.577 11.6271C140.03 11.2649 139.683 10.7358 139.538 10.0398L140.731 9.74148C140.845 10.1818 141.06 10.5121 141.376 10.7322C141.695 10.9524 142.112 11.0625 142.627 11.0625C143.213 11.0625 143.678 10.9382 144.023 10.6896C144.371 10.4375 144.545 10.1357 144.545 9.78409C144.545 9.5 144.446 9.26207 144.247 9.07031C144.048 8.875 143.742 8.7294 143.33 8.63352L141.967 8.31392C141.218 8.13636 140.667 7.86115 140.316 7.48828C139.968 7.11186 139.794 6.64134 139.794 6.0767C139.794 5.61506 139.923 5.20668 140.182 4.85156C140.445 4.49645 140.802 4.21768 141.253 4.01527C141.708 3.81286 142.223 3.71165 142.798 3.71165C143.607 3.71165 144.243 3.8892 144.705 4.24432C145.17 4.59943 145.5 5.06818 145.696 5.65057Z" fill="white"/>
</svg>
